Coordinates
version=1
nRows=22
nColumns=24
inDegrees=yes

Units are S.I. units (second, meters, Newtons, ...)
Angles are in degrees.

endheader
time	pelvis_tilt	pelvis_list	pelvis_rotation	pelvis_tx	pelvis_ty	pelvis_tz	hip_flexion_r	hip_adduction_r	hip_rotation_r	knee_angle_r	ankle_angle_r	subtalar_angle_r	mtp_angle_r	hip_flexion_l	hip_adduction_l	hip_rotation_l	knee_angle_l	ankle_angle_l	subtalar_angle_l	mtp_angle_l	lumbar_extension	lumbar_bending	lumbar_rotation
      7.98333333	   -130.59430247	   -115.63637828	    -27.96218687	      0.13283517	      0.66702734	      0.24987880	    -16.74129799	     70.24907310	    -25.37684552	     94.33209504	   -169.35767816	    -72.20788965	      0.00000000	    -34.87547039	      2.17618530	    163.15483900	    -34.23859491	    -37.71360650	     36.64045699	      0.00000000	     82.54118331	     -4.34669544	   -209.04205436
      7.99166667	   -130.59448563	   -115.63580566	    -27.96418386	      0.13283581	      0.66703228	      0.24987938	    -16.74172364	     70.24807284	    -25.37725992	     94.33709457	   -169.35888849	    -72.20680608	      0.00000000	    -34.87619549	      2.17965137	    163.16448563	    -34.25022597	    -37.71456348	     36.63804646	      0.00000000	     82.54204009	     -4.34494467	   -209.04032189
      8.00000000	   -130.59543500	   -115.63761023	    -27.96484806	      0.13283287	      0.66703822	      0.24988401	    -16.74225574	     70.24698719	    -25.37654898	     94.33735884	   -169.35899194	    -72.20671984	      0.00000000	    -34.87289325	      2.18280549	    163.16907535	    -34.25362359	    -37.71479169	     36.63733154	      0.00000000	     82.53881516	     -4.34465752	   -209.04085489
      8.00833333	   -130.59554295	   -115.63924508	    -27.96585814	      0.13283983	      0.66703560	      0.24989295	    -16.74461580	     70.25157876	    -25.37733067	     94.34096348	   -169.35920524	    -72.20634414	      0.00000000	    -34.86933967	      2.18552087	    163.17384353	    -34.25588808	    -37.71521657	     36.63617562	      0.00000000	     82.53967204	     -4.34376665	   -209.04085176
      8.01666667	   -130.59526106	   -115.64173807	    -27.96653521	      0.13283561	      0.66704379	      0.24989122	    -16.74545899	     70.25125722	    -25.37712227	     94.34334433	   -169.35961119	    -72.20588161	      0.00000000	    -34.86657680	      2.18615932	    163.17904951	    -34.26005759	    -37.71601769	     36.63469361	      0.00000000	     82.53800942	     -4.34231810	   -209.04211528
      8.02500000	   -130.59827707	   -115.64052948	    -27.96705359	      0.13282580	      0.66704963	      0.24988178	    -16.74865656	     70.24488873	    -25.36941920	     94.34230607	   -169.36079940	    -72.20519241	      0.00000000	    -34.86299852	      2.18674154	    163.19243120	    -34.26363525	    -37.71900153	     36.63256200	      0.00000000	     82.53709036	     -4.34703456	   -209.04620467
      8.03333333	   -130.60033834	   -115.63845241	    -27.96834557	      0.13281459	      0.66704070	      0.24988401	    -16.75655964	     70.24626191	    -25.36069812	     94.35051405	   -169.36663698	    -72.20075799	      0.00000000	    -34.85651127	      2.18839428	    163.20541481	    -34.26421548	    -37.72231492	     36.63229573	      0.00000000	     82.53680738	     -4.34902186	   -209.04041462
      8.04166667	   -130.60126835	   -115.64091028	    -27.97125030	      0.13282003	      0.66703982	      0.24987962	    -16.76188507	     70.24895235	    -25.35620808	     94.35362064	   -169.36717850	    -72.20060355	      0.00000000	    -34.85136802	      2.19074614	    163.20713568	    -34.26355277	    -37.72255410	     36.63110025	      0.00000000	     82.53460191	     -4.34888917	   -209.04670206
      8.05000000	   -130.60089524	   -115.64292661	    -27.97111017	      0.13282598	      0.66704073	      0.24987950	    -16.76444611	     70.25232620	    -25.35411919	     94.35693122	   -169.36594216	    -72.20184851	      0.00000000	    -34.84652001	      2.19402274	    163.20946935	    -34.26496313	    -37.72346287	     36.63069964	      0.00000000	     82.53325674	     -4.34952028	   -209.04807082
      8.05833333	   -130.60067937	   -115.64477321	    -27.97042550	      0.13282098	      0.66703305	      0.24987706	    -16.76816597	     70.25246491	    -25.35274532	     94.36304931	   -169.36446521	    -72.20343642	      0.00000000	    -34.84287587	      2.19686940	    163.21172711	    -34.26982530	    -37.72394449	     36.63074506	      0.00000000	     82.53375333	     -4.34771712	   -209.04697013
      8.06666667	   -130.60177238	   -115.64707986	    -27.97122144	      0.13282745	      0.66702823	      0.24987688	    -16.76767747	     70.25193615	    -25.34826356	     94.36404102	   -169.36339367	    -72.20440861	      0.00000000	    -34.83931027	      2.19912321	    163.21193362	    -34.27272627	    -37.72216597	     36.63019051	      0.00000000	     82.53203007	     -4.34808947	   -209.04504298
      8.07500000	   -130.60495987	   -115.64100897	    -27.98232017	      0.13284091	      0.66701764	      0.24986870	    -16.78986915	     70.24326007	    -25.31612902	     94.36713306	   -169.34954115	    -72.21575980	      0.00000000	    -34.83258230	      2.21108461	    163.21078361	    -34.27828201	    -37.70004990	     36.61909365	      0.00000000	     82.53504500	     -4.34297807	   -209.03287335
      8.08333333	   -130.60656089	   -115.64318050	    -27.98451651	      0.13283817	      0.66701461	      0.24986741	    -16.79386342	     70.24325008	    -25.31388547	     94.36936767	   -169.35045643	    -72.21460938	      0.00000000	    -34.83334640	      2.21232102	    163.21349065	    -34.28786048	    -37.70198190	     36.61697211	      0.00000000	     82.53183865	     -4.34335264	   -209.03949443
      8.09166667	   -130.60646429	   -115.64542050	    -27.98523534	      0.13283497	      0.66702525	      0.24986069	    -16.79443016	     70.24320229	    -25.31403453	     94.36999167	   -169.35060223	    -72.21446967	      0.00000000	    -34.83075453	      2.21283240	    163.21377584	    -34.28920965	    -37.70204832	     36.61681150	      0.00000000	     82.53140111	     -4.34411365	   -209.03930886
      8.10000000	   -130.60714666	   -115.64809791	    -27.98140464	      0.13282262	      0.66702193	      0.24985888	    -16.80094305	     70.24426320	    -25.30422446	     94.37999351	   -169.35712347	    -72.20846729	      0.00000000	    -34.82988236	      2.21139581	    163.21649901	    -34.29650188	    -37.70169166	     36.61442962	      0.00000000	     82.52969180	     -4.35126626	   -209.03769720
      8.10833333	   -130.60652018	   -115.65071134	    -27.98326685	      0.13283352	      0.66702286	      0.24985845	    -16.80214353	     70.24516234	    -25.30272087	     94.38221969	   -169.35756285	    -72.20785763	      0.00000000	    -34.82533749	      2.21217927	    163.21824576	    -34.29727839	    -37.70176090	     36.61421219	      0.00000000	     82.52748891	     -4.34787494	   -209.04002724
      8.11666667	   -130.60600014	   -115.65255742	    -27.98450695	      0.13284363	      0.66701666	      0.24984942	    -16.80636448	     70.24703762	    -25.30442426	     94.38665807	   -169.35771159	    -72.20746688	      0.00000000	    -34.82225400	      2.21249386	    163.21939352	    -34.29866559	    -37.70152023	     36.61411757	      0.00000000	     82.52869744	     -4.34481769	   -209.04159042
      8.12500000	   -130.60640950	   -115.65453533	    -27.98550509	      0.13283731	      0.66702049	      0.24984132	    -16.80760417	     70.24726513	    -25.30273093	     94.39267497	   -169.35780484	    -72.20712150	      0.00000000	    -34.81977185	      2.21290475	    163.22076519	    -34.30380503	    -37.70100670	     36.61487848	      0.00000000	     82.52687879	     -4.34269489	   -209.04022308
      8.13333333	   -130.60884898	   -115.65170979	    -27.98632011	      0.13283145	      0.66701973	      0.24983857	    -16.81369761	     70.24416795	    -25.29403634	     94.40166858	   -169.35976004	    -72.20378797	      0.00000000	    -34.81954494	      2.21691710	    163.22673141	    -34.31830174	    -37.70133706	     36.62182056	      0.00000000	     82.52719397	     -4.34708730	   -209.03926253
      8.14166667	   -130.60898523	   -115.65304325	    -27.98825219	      0.13283589	      0.66701614	      0.24983071	    -16.81704092	     70.24656462	    -25.29342016	     94.40180088	   -169.36057195	    -72.20260450	      0.00000000	    -34.81590377	      2.21775758	    163.22738376	    -34.31964909	    -37.70146016	     36.62303858	      0.00000000	     82.52829389	     -4.34872414	   -209.03925535
      8.15000000	   -130.61266257	   -115.65998263	    -27.99951664	      0.13283291	      0.66700880	      0.24983183	    -16.86082803	     70.24473949	    -25.25105979	     94.41121344	   -169.36429384	    -72.18764015	      0.00000000	    -34.81997479	      2.21942037	    163.22344611	    -34.32246242	    -37.71347024	     36.63975340	      0.00000000	     82.52442878	     -4.33853563	   -209.04188855
      8.15833333	   -130.61261239	   -115.66045215	    -28.00009779	      0.13283246	      0.66701362	      0.24982728	    -16.86237622	     70.24481579	    -25.25252197	     94.41573562	   -169.36268229	    -72.18863979	      0.00000000	    -34.81795933	      2.22010896	    163.22360993	    -34.32734440	    -37.71493366	     36.63920627	      0.00000000	     82.52442970	     -4.33639939	   -209.04119139
